<svg width="17" height="17" viewBox="0 0 17 17" fill="none" xmlns="http://www.w3.org/2000/svg">
<path d="M6.47817 10.1371L7.18359 10.8458L10.0187 8.02407L7.19694 5.18897L6.48814 5.89443L8.10566 7.51956L1.0199 7.50284L1.01754 8.50284L8.1033 8.51955L6.47817 10.1371Z" fill="white"/>
<path d="M3.7949 3.76659C4.93075 2.63604 6.43882 2.01551 8.04137 2.01929C9.64409 2.02307 11.1495 2.65071 12.2801 3.78663C13.4108 4.92255 14.0227 6.43075 14.019 8.0334C14.0152 9.63593 13.3961 11.1412 12.26 12.2718C11.124 13.4024 9.61575 14.023 8.01307 14.0193C6.41061 14.0155 4.90546 13.3878 3.77488 12.2518C3.6965 12.1729 3.62027 12.0918 3.5463 12.0087L2.27346 12.0057C3.53399 13.8221 5.63228 15.0136 8.01071 15.0192C11.8768 15.0284 15.0098 11.9014 15.019 8.03576C15.0281 4.16968 11.9098 1.02841 8.04373 1.01929C5.66524 1.01368 3.56126 2.19528 2.29223 4.00573L3.56504 4.00873C3.63943 3.92593 3.71608 3.84519 3.7949 3.76659Z" fill="white"/>
</svg>
